<svg xmlns="http://www.w3.org/2000/svg" xmlns:xlink="http://www.w3.org/1999/xlink" width="140" height="48"
     viewBox="0 0 140 48">
  <defs>
    <polygon id="klarx-a" points="0 .334 29.142 .334 29.142 47.091 0 47.091"/>
    <polygon id="klarx-c" points=".827 .386 29.972 .386 29.972 33.778 .827 33.778"/>
  </defs>
  <g fill="none" fill-rule="evenodd">
    <g transform="translate(0 .555)">
      <mask id="klarx-b" fill="#fff">
        <use xlink:href="#klarx-a"/>
      </mask>
      <path fill="#FD6565"
            d="M29.134,47.0907556 C25.1726164,47.0898667 21.2103522,47.0898667 17.2489686,47.0889778 C17.246327,44.6018667 17.2384025,42.1156444 17.2489686,39.6294222 C17.2507296,39.3209778 17.1556352,39.1112 16.9425535,38.8987556 C15.3717358,37.3307556 13.8132453,35.7494222 12.2494717,34.1743111 C12.1658239,34.0889778 12.0768931,34.0107556 11.914,33.8578667 L11.914,34.4027556 C11.9131195,38.4614222 11.9131195,42.5192 11.910478,46.5787556 C11.910478,46.7485333 11.8946289,46.9183111 11.8858239,47.0880889 C7.92355975,47.0872 3.9612956,47.0863111 -8.80503145e-05,47.0854222 C0.00255345912,31.5023111 0.00519496855,15.9183111 0.00871698113,0.334311111 C3.97010063,0.334311111 7.93236478,0.3352 11.8937484,0.336088889 C11.903434,0.518311111 11.919283,0.700533333 11.919283,0.882755556 C11.919283,9.74408889 11.9166415,18.6072 11.915761,27.4694222 C11.915761,27.6347556 11.915761,27.8000889 11.9148805,28.0552 C12.0760126,27.9049778 12.1649434,27.8276444 12.2468302,27.7440889 C13.8282138,26.1512 15.405195,24.5538667 16.9936226,22.9680889 C17.1829308,22.7796444 17.2507296,22.5912 17.2498491,22.3280889 C17.2419245,19.6089778 17.246327,16.8898667 17.246327,14.1725333 L17.246327,13.7387556 C21.2358868,13.7396444 25.1752579,13.7405333 29.1190314,13.7414222 C29.128717,13.8196444 29.139283,13.8676444 29.139283,13.9147556 C29.139283,17.5592 29.141044,21.2045333 29.130478,24.8498667 C29.1295975,24.9849778 29.0389057,25.1485333 28.9402893,25.2507556 C27.9963899,26.2285333 27.0489686,27.2036444 26.0892201,28.1645333 C25.362805,28.8916444 24.6161384,29.5992 23.8668302,30.3280889 C24.0191572,30.4925333 24.0984025,30.5823111 24.1820503,30.6676444 C25.7519874,32.2720889 27.319283,33.8792 28.8962642,35.4765333 C29.0741258,35.6560889 29.142805,35.8320889 29.1419245,36.0827556 C29.134,39.7520889 29.1348805,43.4214222 29.134,47.0907556"
            mask="url(#klarx-b)"/>
    </g>
    <path fill="#FD6565"
          d="M61.3901761,37.0880889 C63.6565912,37.0889778 65.8842642,37.0889778 68.1145786,37.0898667 C68.1154591,32.9858667 68.1163396,28.9094222 68.1163396,24.8320889 C65.8622516,24.8320889 63.6345786,24.8312 61.3928176,24.8312 C61.3919371,28.9236444 61.3910566,32.9920889 61.3901761,37.0880889 M54.2105535,47.6507556 C52.9989811,46.4614222 51.7918113,45.2667556 50.571434,44.0880889 C50.3451447,43.8694222 50.2465283,43.6525333 50.2465283,43.3298667 C50.2562138,35.0774222 50.2579748,26.8249778 50.2509308,18.5725333 C50.2509308,18.2507556 50.3504277,18.0329778 50.5775975,17.8152 C51.7240126,16.7165333 52.8528176,15.5965333 54.0009937,14.4996444 C54.1330692,14.3734222 54.353195,14.2792 54.5328176,14.2783111 C57.2253962,14.2649778 59.9179748,14.2649778 62.6105535,14.2800889 C62.7884151,14.2809778 63.0085409,14.3814222 63.1362138,14.5094222 C64.7175975,16.0845333 66.2866541,17.6729778 67.8557107,19.2614222 C67.947283,19.3547556 68.0106792,19.4774222 68.0864025,19.5876444 C68.1233836,19.5654222 68.1603648,19.5440889 68.1982264,19.5218667 C68.1982264,17.7903111 68.1982264,16.0596444 68.1991069,14.2952 C68.3716855,14.2863111 68.4993585,14.2720889 68.6270314,14.2720889 C72.0689182,14.2720889 75.5099245,14.2774222 78.9509308,14.2649778 C79.2952075,14.2640889 79.3982264,14.3503111 79.3982264,14.7085333 C79.3867799,25.5698667 79.3858994,36.4312 79.3841384,47.2916444 C79.3841384,47.4125333 79.3665283,47.5334222 79.3577233,47.6552 C75.638478,47.6543111 71.9174717,47.6534222 68.1964654,47.6525333 C68.1973459,45.8987556 68.1973459,44.1440889 68.1973459,42.3423111 C66.403761,44.1432 64.6550818,45.8969778 62.907283,47.6516444 C60.0077862,47.6516444 57.1091698,47.6507556 54.2105535,47.6507556"/>
    <g transform="translate(109.182 13.888)">
      <mask id="klarx-d" fill="#fff">
        <use xlink:href="#klarx-c"/>
      </mask>
      <path fill="#FD6565"
            d="M0.83154717,33.7721778 C0.832427673,29.7739556 0.835949686,25.7757333 0.827144654,21.7775111 C0.827144654,21.5090667 0.908150943,21.3268444 1.09393711,21.1419556 C2.34865409,19.8921778 3.59192453,18.6299556 4.8431195,17.3766222 C4.93557233,17.2824 5.06060377,17.2219556 5.19355975,17.1286222 C4.5921761,16.5259556 4.07179874,16.0041778 3.55142138,15.4797333 C2.7149434,14.6352889 1.87406289,13.7944 1.04815094,12.9392889 C0.936327044,12.8237333 0.844754717,12.6308444 0.843874214,12.4735111 C0.833308176,8.54817778 0.836830189,4.62284444 0.837710692,0.697511111 C0.837710692,0.613955556 0.847396226,0.531288889 0.853559748,0.420177778 C4.80877987,0.420177778 8.74638994,0.421066667 12.7315472,0.421955556 L12.7315472,0.865511111 C12.7315472,3.58462222 12.7341887,6.30284444 12.7245031,9.02106667 C12.7236226,9.28684444 12.7993459,9.47262222 12.9868931,9.65928889 C13.7837484,10.4548444 14.5647547,11.2664 15.3924277,12.1135111 C16.0307925,11.4610667 16.5907925,10.8006222 17.2423648,10.2468444 C17.8895346,9.69484444 18.0999748,9.07884444 18.0797233,8.22551111 C18.0198491,5.76417778 18.0656352,3.30106667 18.0524277,0.838844444 C18.0506667,0.493955556 18.1325535,0.384622222 18.4900377,0.385511111 C22.209283,0.399733333 25.9285283,0.395288889 29.6477736,0.397066667 C29.7560755,0.397066667 29.8643774,0.409511111 29.9726792,0.415733333 C29.9717987,4.53662222 29.9709182,8.6584 29.9700377,12.7801778 C29.912805,12.8219556 29.8485283,12.8557333 29.7992201,12.9046222 C28.4758239,14.2352889 27.1533082,15.5686222 25.8307925,16.9010667 C25.7744403,16.9570667 25.7295346,17.0246222 25.7286541,17.0264 C27.1577107,18.5055111 28.5629937,19.9597333 29.9682767,21.4130667 C29.9673962,25.5339556 29.9665157,29.6557333 29.9665157,33.7775111 C26.0042516,33.7775111 22.0419874,33.7766222 18.0806038,33.7757333 C18.0717987,33.6184 18.0559497,33.4601778 18.0550692,33.3037333 C18.0541887,30.9517333 18.0515472,28.6006222 18.0594717,26.2486222 C18.0603522,25.9970667 17.9881509,25.8166222 17.8094088,25.6406222 C17.0750692,24.9170667 16.3539371,24.1801778 15.627522,23.4495111 C15.5526792,23.3748444 15.4699119,23.3081778 15.3721761,23.2210667 C14.5709182,24.0317333 13.7943145,24.8317333 13.0001006,25.6139556 C12.8037484,25.8086222 12.7201006,26.0024 12.7209811,26.2815111 C12.7280252,28.7792889 12.7209811,31.2761778 12.7174591,33.7748444 C8.75519497,33.7739556 4.79381132,33.7730667 0.83154717,33.7721778"
            mask="url(#klarx-d)"/>
    </g>
    <path fill="#FD6565"
          d="M45.6666792.897155556C45.6649182.994044444 45.6622767 1.09271111 45.6622767 1.1896 45.6587547 16.5789333 45.6561132 31.9673778 45.6534717 47.3567111 45.6534717 47.4536 45.6561132 47.5504889 45.6578742 47.6491556 41.6956101 47.6482667 37.7342264 47.6473778 33.7719623 47.6464889 33.7657987 47.4882667 33.7543522 47.3300444 33.7543522 47.1727111 33.7569937 31.9051556 33.7596352 16.6367111 33.7622767 1.36826667 33.7622767 1.21093333 33.7746038 1.0536 33.7807673.895377778 37.7430314.895377778 41.7044151.896266667 45.6666792.897155556M83.9961258 47.6558222C83.9987673 36.5500444 84.0005283 25.4451556 84.0022893 14.3064889 87.968956 14.3073778 91.9074465 14.3082667 95.8987673 14.3082667 95.8987673 16.0478222 95.8987673 17.7811556 95.8978868 19.5127111 95.959522 19.5589333 96.0220377 19.6042667 96.0845535 19.6496 96.1400252 19.5260444 96.1682013 19.3758222 96.2580126 19.2851556 97.8147421 17.7020444 99.3820377 16.1287111 100.938767 14.5456 101.121912 14.3598222 101.301535 14.2682667 101.569208 14.2709333 102.945434 14.2851556 104.322541 14.2780444 105.698767 14.2780444L106.079145 14.2780444C106.079145 17.9020444 106.078264 21.4913778 106.077384 25.1331556L105.65122 25.1331556C102.559774 25.1322667 99.4674465 25.1322667 96.376 25.1313778 95.9005283 25.1313778 95.8996478 25.1322667 95.8996478 25.6024889 95.8978868 32.7847111 95.8970063 39.9660444 95.8943648 47.1464889 95.8943648 47.3171556 95.8864403 47.4878222 95.8820377 47.6576 91.9197736 47.6567111 87.9583899 47.6567111 83.9961258 47.6558222"/>
  </g>
</svg>
